<?xml version="1.0" encoding="utf-8"?>
<!-- Generator: Adobe Illustrator 23.0.1, SVG Export Plug-In . SVG Version: 6.00 Build 0)  -->
<svg version="1.1" id="Camada_1" xmlns="http://www.w3.org/2000/svg" xmlns:xlink="http://www.w3.org/1999/xlink" x="0px" y="0px"
	 viewBox="0 0 20 20" style="enable-background:new 0 0 20 20;" xml:space="preserve">
<style type="text/css">
	.st0{fill:#FFFFFF;}
</style>
<g>
	<path class="st0" d="M10.1,9c-2.2,0-4,1.8-4,4s1.8,4,4,4s4-1.8,4-4S12.3,9,10.1,9z M10.1,15.4c-1.3,0-2.4-1.1-2.4-2.4
		s1.1-2.4,2.4-2.4s2.4,1.1,2.4,2.4S11.4,15.4,10.1,15.4z"/>
	<path class="st0" d="M19.2,4.2l-3.3-3.3c-0.4-0.4-0.9-0.7-1.4-0.8V0h-0.7H3.1H2.3C1,0,0,1,0,2.3v15.4C0,19,1,20,2.3,20h15.4
		c1.3,0,2.3-1,2.3-2.3V6.2C20,5.4,19.7,4.7,19.2,4.2z M12.9,1.5v4H4.7v-4H12.9z M18.5,17.7c0,0.4-0.3,0.7-0.7,0.7H2.3
		c-0.4,0-0.7-0.3-0.7-0.7V2.3c0-0.4,0.3-0.7,0.7-0.7h0.8v5.6h11.3V1.7c0.1,0.1,0.2,0.1,0.3,0.2l3.3,3.3c0.3,0.3,0.4,0.6,0.4,1V17.7z
		"/>
</g>
</svg>
