<svg width="20" height="20" viewBox="0 0 20 20" fill="none" xmlns="http://www.w3.org/2000/svg">
<path d="M19.7261 17.2913L15.832 13.3971C15.6562 13.2214 15.4179 13.1237 15.168 13.1237H14.5313C15.6093 11.7449 16.2499 10.0107 16.2499 8.12421C16.2499 3.63636 12.6135 0 8.12567 0C3.63783 0 0.00146484 3.63636 0.00146484 8.12421C0.00146484 12.612 3.63783 16.2484 8.12567 16.2484C10.0122 16.2484 11.7464 15.6079 13.1252 14.5298V15.1665C13.1252 15.4165 13.2228 15.6547 13.3986 15.8305L17.2927 19.7246C17.6599 20.0918 18.2536 20.0918 18.6168 19.7246L19.7222 18.6193C20.0893 18.2521 20.0893 17.6584 19.7261 17.2913ZM8.12567 13.1237C5.36422 13.1237 3.12616 10.8896 3.12616 8.12421C3.12616 5.36276 5.36032 3.12469 8.12567 3.12469C10.8871 3.12469 13.1252 5.35885 13.1252 8.12421C13.1252 10.8857 10.891 13.1237 8.12567 13.1237Z" fill="white"/>
</svg>
