<svg width="24" height="24" viewBox="0 0 24 24" fill="none" xmlns="http://www.w3.org/2000/svg">
<g opacity="0.48">
<path d="M10.7157 19.9832L8.80962 19.4301C8.60964 19.3739 8.49715 19.1645 8.55339 18.9645L12.8187 4.27191C12.8749 4.07193 13.0843 3.95944 13.2843 4.01568L15.1904 4.56876C15.3904 4.62501 15.5029 4.83437 15.4466 5.03435L11.1813 19.727C11.1219 19.9269 10.9157 20.0426 10.7157 19.9832ZM7.1535 16.4772L8.51277 15.0273C8.65651 14.8742 8.64714 14.6305 8.48777 14.4899L5.65675 11.9994L8.48777 9.509C8.64714 9.36839 8.65964 9.12466 8.51277 8.97155L7.1535 7.52166C7.01289 7.37167 6.77541 7.3623 6.62229 7.50604L2.11952 11.7245C1.96016 11.8713 1.96016 12.1244 2.11952 12.2713L6.62229 16.4928C6.77541 16.6366 7.01289 16.6303 7.1535 16.4772ZM17.3777 16.496L21.8805 12.2744C22.0398 12.1275 22.0398 11.8744 21.8805 11.7276L17.3777 7.50291C17.2277 7.3623 16.9902 7.36855 16.8465 7.51853L15.4872 8.96842C15.3435 9.12153 15.3529 9.36527 15.5122 9.50588L18.3433 11.9994L15.5122 14.4899C15.3529 14.6305 15.3404 14.8742 15.4872 15.0273L16.8465 16.4772C16.9871 16.6303 17.2246 16.6366 17.3777 16.496Z" fill="white"/>
</g>
</svg>
